0
SECTION
2
ENTITIES
0
LWPOLYLINE
8
0
90
361
70
1
10
1.000146
20
0.000778
10
1.000071
20
0.000799
10
0.999847
20
0.000861
10
0.999472
20
0.000966
10
0.998948
20
0.001112
10
0.998274
20
0.001300
10
0.997451
20
0.001529
10
0.996478
20
0.001798
10
0.995357
20
0.002109
10
0.994087
20
0.002460
10
0.992669
20
0.002851
10
0.991103
20
0.003282
10
0.989390
20
0.003751
10
0.987529
20
0.004259
10
0.985523
20
0.004806
10
0.983370
20
0.005389
10
0.981071
20
0.006009
10
0.978628
20
0.006666
10
0.976041
20
0.007358
10
0.973310
20
0.008084
10
0.970437
20
0.008844
10
0.967422
20
0.009638
10
0.964266
20
0.010463
10
0.960969
20
0.011320
10
0.957533
20
0.012207
10
0.953959
20
0.013123
10
0.950247
20
0.014067
10
0.946399
20
0.015039
10
0.942415
20
0.016038
10
0.938298
20
0.017061
10
0.934047
20
0.018109
10
0.929664
20
0.019180
10
0.925150
20
0.020272
10
0.920507
20
0.021385
10
0.915736
20
0.022518
10
0.910838
20
0.023669
10
0.905814
20
0.024837
10
0.900667
20
0.026022
10
0.895396
20
0.027220
10
0.890005
20
0.028433
10
0.884493
20
0.029657
10
0.878864
20
0.030892
10
0.873118
20
0.032137
10
0.867258
20
0.033389
10
0.861284
20
0.034649
10
0.855198
20
0.035915
10
0.849003
20
0.037185
10
0.842700
20
0.038457
10
0.836291
20
0.039732
10
0.829777
20
0.041007
10
0.823161
20
0.042281
10
0.816445
20
0.043553
10
0.809630
20
0.044821
10
0.802718
20
0.046085
10
0.795712
20
0.047342
10
0.788613
20
0.048592
10
0.781423
20
0.049834
10
0.774146
20
0.051065
10
0.766782
20
0.052286
10
0.759334
20
0.053493
10
0.751804
20
0.054688
10
0.744195
20
0.055867
10
0.736508
20
0.057031
10
0.728746
20
0.058177
10
0.720911
20
0.059304
10
0.713006
20
0.060413
10
0.705033
20
0.061500
10
0.696994
20
0.062566
10
0.688892
20
0.063609
10
0.680730
20
0.064628
10
0.672508
20
0.065622
10
0.664231
20
0.066590
10
0.655901
20
0.067531
10
0.647520
20
0.068444
10
0.639091
20
0.069328
10
0.630615
20
0.070182
10
0.622097
20
0.071005
10
0.613539
20
0.071797
10
0.604942
20
0.072557
10
0.596311
20
0.073283
10
0.587646
20
0.073975
10
0.578952
20
0.074633
10
0.570231
20
0.075255
10
0.561486
20
0.075841
10
0.552719
20
0.076390
10
0.543932
20
0.076902
10
0.535130
20
0.077375
10
0.526314
20
0.077811
10
0.517488
20
0.078207
10
0.508661
20
0.078564
10
0.499834
20
0.078885
10
0.491005
20
0.079168
10
0.482177
20
0.079414
10
0.473352
20
0.079622
10
0.464534
20
0.079792
10
0.455725
20
0.079924
10
0.446927
20
0.080017
10
0.438145
20
0.080072
10
0.429380
20
0.080088
10
0.420636
20
0.080064
10
0.411914
20
0.080002
10
0.403219
20
0.079901
10
0.394552
20
0.079760
10
0.385917
20
0.079580
10
0.377317
20
0.079362
10
0.368753
20
0.079104
10
0.360230
20
0.078808
10
0.351749
20
0.078473
10
0.343313
20
0.078100
10
0.334926
20
0.077688
10
0.326590
20
0.077239
10
0.318307
20
0.076753
10
0.310080
20
0.076229
10
0.301912
20
0.075669
10
0.293806
20
0.075073
10
0.285764
20
0.074441
10
0.277789
20
0.073774
10
0.269883
20
0.073072
10
0.262050
20
0.072336
10
0.254290
20
0.071567
10
0.246608
20
0.070765
10
0.239006
20
0.069932
10
0.231485
20
0.069067
10
0.224049
20
0.068171
10
0.216700
20
0.067247
10
0.209440
20
0.066293
10
0.202271
20
0.065311
10
0.195197
20
0.064303
10
0.188218
20
0.063268
10
0.181338
20
0.062208
10
0.174559
20
0.061124
10
0.167882
20
0.060017
10
0.161311
20
0.058887
10
0.154846
20
0.057737
10
0.148490
20
0.056567
10
0.142246
20
0.055377
10
0.136114
20
0.054170
10
0.130097
20
0.052946
10
0.124198
20
0.051707
10
0.118416
20
0.050453
10
0.112756
20
0.049186
10
0.107217
20
0.047906
10
0.101803
20
0.046616
10
0.096514
20
0.045316
10
0.091352
20
0.044007
10
0.086319
20
0.042691
10
0.081417
20
0.041369
10
0.076646
20
0.040041
10
0.072009
20
0.038710
10
0.067506
20
0.037375
10
0.063139
20
0.036040
10
0.058909
20
0.034703
10
0.054818
20
0.033367
10
0.050866
20
0.032033
10
0.047056
20
0.030702
10
0.043387
20
0.029375
10
0.039861
20
0.028053
10
0.036479
20
0.026736
10
0.033242
20
0.025427
10
0.030151
20
0.024125
10
0.027206
20
0.022833
10
0.024409
20
0.021550
10
0.021760
20
0.020278
10
0.019260
20
0.019017
10
0.016910
20
0.017769
10
0.014709
20
0.016534
10
0.012660
20
0.015313
10
0.010762
20
0.014107
10
0.009015
20
0.012916
10
0.007421
20
0.011741
10
0.005979
20
0.010582
10
0.004690
20
0.009441
10
0.003555
20
0.008316
10
0.002572
20
0.007210
10
0.001743
20
0.006123
10
0.001068
20
0.005054
10
0.000547
20
0.004004
10
0.000180
20
0.002973
10
-0.000034
20
0.001963
10
-0.000094
20
0.000971
10
0.000000
20
0.000000
10
0.000246
20
-0.000944
10
0.000643
20
-0.001854
10
0.001191
20
-0.002730
10
0.001889
20
-0.003572
10
0.002737
20
-0.004379
10
0.003735
20
-0.005153
10
0.004882
20
-0.005892
10
0.006177
20
-0.006597
10
0.007621
20
-0.007268
10
0.009213
20
-0.007905
10
0.010952
20
-0.008508
10
0.012837
20
-0.009077
10
0.014868
20
-0.009613
10
0.017044
20
-0.010116
10
0.019365
20
-0.010585
10
0.021829
20
-0.011021
10
0.024435
20
-0.011424
10
0.027184
20
-0.011795
10
0.030073
20
-0.012133
10
0.033101
20
-0.012439
10
0.036269
20
-0.012713
10
0.039574
20
-0.012956
10
0.043016
20
-0.013167
10
0.046594
20
-0.013347
10
0.050306
20
-0.013497
10
0.054150
20
-0.013617
10
0.058127
20
-0.013707
10
0.062235
20
-0.013767
10
0.066471
20
-0.013798
10
0.070836
20
-0.013801
10
0.075327
20
-0.013776
10
0.079943
20
-0.013723
10
0.084683
20
-0.013643
10
0.089545
20
-0.013536
10
0.094528
20
-0.013403
10
0.099631
20
-0.013245
10
0.104850
20
-0.013062
10
0.110186
20
-0.012855
10
0.115637
20
-0.012624
10
0.121200
20
-0.012369
10
0.126874
20
-0.012093
10
0.132658
20
-0.011795
10
0.138549
20
-0.011475
10
0.144546
20
-0.011135
10
0.150648
20
-0.010776
10
0.156851
20
-0.010398
10
0.163156
20
-0.010001
10
0.169559
20
-0.009587
10
0.176059
20
-0.009157
10
0.182653
20
-0.008711
10
0.189341
20
-0.008249
10
0.196120
20
-0.007774
10
0.202988
20
-0.007285
10
0.209943
20
-0.006784
10
0.216984
20
-0.006271
10
0.224107
20
-0.005747
10
0.231312
20
-0.005213
10
0.238596
20
-0.004671
10
0.245956
20
-0.004120
10
0.253392
20
-0.003561
10
0.260900
20
-0.002997
10
0.268479
20
-0.002426
10
0.276126
20
-0.001851
10
0.283840
20
-0.001273
10
0.291618
20
-0.000691
10
0.299457
20
-0.000108
10
0.307357
20
0.000477
10
0.315313
20
0.001062
10
0.323325
20
0.001646
10
0.331390
20
0.002229
10
0.339506
20
0.002810
10
0.347670
20
0.003387
10
0.355879
20
0.003961
10
0.364133
20
0.004529
10
0.372428
20
0.005092
10
0.380761
20
0.005649
10
0.389132
20
0.006198
10
0.397536
20
0.006740
10
0.405972
20
0.007273
10
0.414438
20
0.007796
10
0.422930
20
0.008310
10
0.431447
20
0.008813
10
0.439986
20
0.009305
10
0.448544
20
0.009784
10
0.457120
20
0.010251
10
0.465710
20
0.010706
10
0.474312
20
0.011146
10
0.482923
20
0.011572
10
0.491542
20
0.011984
10
0.500166
20
0.012380
10
0.508791
20
0.012761
10
0.517412
20
0.013126
10
0.526022
20
0.013473
10
0.534626
20
0.013799
10
0.543223
20
0.014106
10
0.551810
20
0.014392
10
0.560384
20
0.014658
10
0.568942
20
0.014903
10
0.577482
20
0.015127
10
0.586002
20
0.015331
10
0.594498
20
0.015513
10
0.602969
20
0.015675
10
0.611412
20
0.015815
10
0.619825
20
0.015935
10
0.628204
20
0.016033
10
0.636547
20
0.016111
10
0.644852
20
0.016168
10
0.653116
20
0.016205
10
0.661337
20
0.016221
10
0.669512
20
0.016217
10
0.677638
20
0.016194
10
0.685714
20
0.016151
10
0.693737
20
0.016088
10
0.701703
20
0.016008
10
0.709612
20
0.015908
10
0.717460
20
0.015791
10
0.725245
20
0.015656
10
0.732964
20
0.015504
10
0.740615
20
0.015336
10
0.748196
20
0.015151
10
0.755704
20
0.014951
10
0.763138
20
0.014737
10
0.770493
20
0.014507
10
0.777770
20
0.014264
10
0.784964
20
0.014008
10
0.792074
20
0.013740
10
0.799097
20
0.013459
10
0.806032
20
0.013167
10
0.812876
20
0.012865
10
0.819626
20
0.012553
10
0.826282
20
0.012232
10
0.832840
20
0.011903
10
0.839298
20
0.011565
10
0.845655
20
0.011221
10
0.851908
20
0.010871
10
0.858056
20
0.010515
10
0.864096
20
0.010154
10
0.870027
20
0.009789
10
0.875845
20
0.009420
10
0.881551
20
0.009050
10
0.887141
20
0.008677
10
0.892615
20
0.008303
10
0.897969
20
0.007928
10
0.903203
20
0.007554
10
0.908314
20
0.007181
10
0.913301
20
0.006809
10
0.918163
20
0.006440
10
0.922898
20
0.006074
10
0.927503
20
0.005712
10
0.931979
20
0.005354
10
0.936322
20
0.005000
10
0.940532
20
0.004653
10
0.944608
20
0.004312
10
0.948547
20
0.003977
10
0.952349
20
0.003651
10
0.956012
20
0.003332
10
0.959536
20
0.003021
10
0.962918
20
0.002720
10
0.966159
20
0.002429
10
0.969256
20
0.002147
10
0.972208
20
0.001876
10
0.975016
20
0.001617
10
0.977677
20
0.001368
10
0.980190
20
0.001132
10
0.982556
20
0.000908
10
0.984773
20
0.000696
10
0.986841
20
0.000498
10
0.988758
20
0.000313
10
0.990524
20
0.000142
10
0.992138
20
-0.000016
10
0.993601
20
-0.000159
10
0.994911
20
-0.000288
10
0.996068
20
-0.000402
10
0.997071
20
-0.000501
10
0.997921
20
-0.000585
10
0.998616
20
-0.000654
10
0.999158
20
-0.000708
10
0.999544
20
-0.000747
10
0.999776
20
-0.000770
10
0.999854
20
-0.000778
0
ENDSEC
0
EOF